<!DOCTYPE svg PUBLIC "-//W3C//DTD SVG 1.1//EN" "http://www.w3.org/Graphics/SVG/1.1/DTD/svg11.dtd">
<!-- Uploaded to: SVG Repo, www.svgrepo.com, Transformed by: SVG Repo Mixer Tools -->
<svg width="100px" height="100px" viewBox="0 0 64 64" xmlns="http://www.w3.org/2000/svg" fill="#000000">
<g id="SVGRepo_bgCarrier" stroke-width="0"/>
<g id="SVGRepo_tracerCarrier" stroke-linecap="round" stroke-linejoin="round"/>
<g id="SVGRepo_iconCarrier"> <g id="flat"> <path d="M38,40.787V9A6,6,0,0,0,26,9V40.787a11,11,0,1,0,12,0Z" style="fill:#a885f5"/> <path d="M38,40.787V9a5.986,5.986,0,0,0-8-5.651A6,6,0,0,1,34,9V40.787A10.99,10.99,0,0,1,30,60.81a10.992,10.992,0,0,0,8-20.023Z" style="fill:#9E77F2"/> <polygon points="38.803 50.802 36.472 51.427 34 50 36.472 48.573 38.803 49.198 39.321 47.267 37.555 46.793 38.028 45.026 36.096 44.509 35.471 46.841 33 48.268 33 45.414 34.707 43.707 33.293 42.293 32 43.586 30.707 42.293 29.293 43.707 31 45.414 31 48.268 28.529 46.841 27.904 44.509 25.972 45.026 26.445 46.793 24.679 47.267 25.197 49.198 27.528 48.573 30 50 27.528 51.427 25.197 50.802 24.679 52.733 26.445 53.207 25.972 54.974 27.904 55.491 28.529 53.159 31 51.732 31 54.586 29.293 56.293 30.707 57.707 32 56.414 33.293 57.707 34.707 56.293 33 54.586 33 51.732 35.471 53.159 36.096 55.491 38.028 54.974 37.555 53.207 39.321 52.733 38.803 50.802" style="fill:#ebebe8"/> <rect height="2" style="fill:#9E77F2" width="5" x="26" y="8"/> <rect height="2" style="fill:#9E77F2" width="3" x="26" y="12"/> <rect height="2" style="fill:#9E77F2" width="5" x="26" y="16"/> <rect height="2" style="fill:#9E77F2" width="3" x="26" y="20"/> <rect height="2" style="fill:#9E77F2" width="5" x="26" y="24"/> <rect height="2" style="fill:#9E77F2" width="3" x="26" y="28"/> <rect height="2" style="fill:#9E77F2" width="5" x="26" y="32"/> <rect height="2" style="fill:#9E77F2" width="3" x="26" y="36"/> <rect height="11" style="fill:#D95323" width="2" x="31" y="29"/> </g> </g>
</svg>